<?xml version="1.0" encoding="utf-8"?>
<!-- Generator: Adobe Illustrator 23.0.2, SVG Export Plug-In . SVG Version: 6.00 Build 0)  -->
<svg version="1.1"
	 id="svg2" xmlns:cc="http://creativecommons.org/ns#" xmlns:dc="http://purl.org/dc/elements/1.1/" xmlns:rdf="http://www.w3.org/1999/02/22-rdf-syntax-ns#"
	 xmlns="http://www.w3.org/2000/svg" xmlns:xlink="http://www.w3.org/1999/xlink" x="0px" y="0px" viewBox="0 0 283.5 283.5"
	 style="enable-background:new 0 0 283.5 283.5;" xml:space="preserve">
<path id="path4164" d="M209.3,55.9c-2.3,2.6-6,2.5-8.3,0c-2.3-2.5-2.3-6.6,0-9.1c2.3-2.6,6-2.6,8.3,0
	C211.5,49.4,211.5,53.4,209.3,55.9 M208,235c-3.9,4.3-10.5,4.3-14.4,0s-3.9-11.4,0-15.9c3.9-4.3,10.5-4.3,14.4,0
	C211.9,223.6,211.9,230.7,208,235 M173.9,213.4c-3.9-4.3-3.9-11.5,0-15.9s10.5-4.3,14.5,0c4,4.3,3.9,11.5,0,15.9
	C184.3,217.8,177.8,217.8,173.9,213.4 M168.6,235c-3.9,4.3-10.5,4.3-14.4,0c-4-4.3-4-11.4,0-15.9c3.9-4.3,10.5-4.3,14.4,0
	C172.6,223.6,172.6,230.7,168.6,235 M134.5,213.4c-3.9-4.3-3.9-11.5,0-15.9s10.5-4.3,14.5,0c3.9,4.3,3.9,11.5,0,15.9
	C145,217.8,138.5,217.8,134.5,213.4 M129.2,235c-3.9,4.3-10.5,4.3-14.4,0c-3.9-4.4-3.9-11.4,0-15.9c3.9-4.3,10.5-4.3,14.5,0
	C133.3,223.6,133.3,230.7,129.2,235 M95.1,213.4c-3.9-4.3-3.9-11.4,0-15.9c4-4.3,10.5-4.3,14.4,0c3.9,4.3,3.9,11.5,0,15.9
	C105.6,217.8,99.1,217.8,95.1,213.4 M89.9,235c-3.9,4.3-10.5,4.3-14.4,0c-3.9-4.4-3.9-11.4,0-15.9c3.9-4.3,10.5-4.3,14.4,0
	C93.9,223.6,93.9,230.7,89.9,235 M74.2,46.8c2.3-2.6,6-2.6,8.3,0c2.3,2.5,2.3,6.6,0,9.1c-2.3,2.6-6,2.6-8.3,0
	C71.9,53.4,71.9,49.4,74.2,46.8 M86.8,60.8c2.3-2.5,6-2.5,8.3,0c2.3,2.6,2.3,6.6,0,9.1c-2.3,2.5-6,2.5-8.3,0
	C84.6,67.3,84.6,63.3,86.8,60.8 M99.5,74.7c2.3-2.6,6-2.6,8.3,0c2.3,2.5,2.3,6.6,0,9.1c-2.3,2.5-6,2.5-8.3,0
	C97.3,81.3,97.3,77.3,99.5,74.7 M99.5,46.8c2.3-2.5,6-2.6,8.3,0c2.3,2.5,2.3,6.6,0,9.1c-2.3,2.6-6,2.5-8.3,0S97.3,49.4,99.5,46.8
	 M112.3,88.7c2.3-2.5,6-2.5,8.3,0c2.3,2.5,2.3,6.6,0,9.1c-2.3,2.5-6,2.5-8.3,0C110,95.2,110,91.2,112.3,88.7 M112.3,60.8
	c2.3-2.5,6-2.5,8.3,0c2.3,2.6,2.3,6.6,0,9.1c-2.3,2.5-6,2.5-8.3,0C110,67.3,110,63.3,112.3,60.8 M124.9,46.8c2.3-2.5,6-2.6,8.3,0
	c2.3,2.5,2.3,6.6,0,9.1c-2.3,2.6-6,2.5-8.3,0C122.6,53.4,122.6,49.4,124.9,46.8 M137.6,88.7c2.3-2.6,6-2.5,8.3,0
	c2.3,2.5,2.3,6.6,0,9.1s-6,2.5-8.3,0C135.3,95.2,135.3,91.2,137.6,88.7 M137.6,60.8c2.3-2.5,6-2.5,8.3,0s2.3,6.6,0,9.1
	c-2.3,2.5-6,2.5-8.3,0C135.3,67.3,135.3,63.3,137.6,60.8 M150.3,46.8c2.3-2.6,6-2.6,8.3,0c2.3,2.5,2.3,6.6,0,9.1s-6,2.6-8.3,0
	C147.9,53.4,147.9,49.4,150.3,46.8 M154.2,175.9c3.9-4.3,10.5-4.3,14.4,0s3.9,11.4,0,15.9c-3.9,4.3-10.5,4.3-14.4,0
	C150.2,187.4,150.2,180.3,154.2,175.9 M158.5,111.7c-2.3,2.6-6,2.5-8.3,0c-2.3-2.5-2.3-6.6,0-9.1c2.3-2.5,6-2.5,8.3,0
	C160.9,105.2,160.9,109.2,158.5,111.7 M158.5,83.8c-2.3,2.6-6,2.6-8.3,0c-2.3-2.5-2.3-6.6,0-9.1c2.3-2.5,6-2.5,8.3,0
	C160.9,77.3,160.9,81.3,158.5,83.8 M137.6,116.6c2.3-2.5,6-2.5,8.3,0c2.3,2.5,2.3,6.6,0,9.1s-6,2.5-8.3,0
	C135.3,123.1,135.3,119.1,137.6,116.6 M134.5,154.4c3.9-4.3,10.5-4.3,14.5,0c3.9,4.3,3.9,11.4,0,15.9c-3.9,4.3-10.5,4.3-14.5,0
	C130.5,165.8,130.5,158.7,134.5,154.4 M129.2,175.9c3.9,4.3,3.9,11.4,0,15.9c-3.9,4.3-10.5,4.3-14.4,0c-4-4.3-3.9-11.4,0-15.9
	C118.8,171.6,125.3,171.6,129.2,175.9 M124.9,74.7c2.3-2.6,6-2.6,8.3,0c2.3,2.5,2.3,6.6,0,9.1c-2.3,2.6-6,2.6-8.3,0
	C122.6,81.3,122.6,77.3,124.9,74.7 M124.9,102.6c2.3-2.6,6-2.6,8.3,0c2.3,2.5,2.3,6.6,0,9.1c-2.3,2.5-6,2.5-8.3,0
	C122.6,109.2,122.6,105.2,124.9,102.6 M162.9,88.7c2.3-2.5,6-2.5,8.3,0c2.3,2.5,2.3,6.6,0,9.1c-2.3,2.5-6,2.5-8.3,0
	C160.7,95.2,160.7,91.2,162.9,88.7 M162.9,60.8c2.3-2.5,6-2.5,8.3,0s2.3,6.6,0,9.1c-2.3,2.5-6,2.5-8.3,0
	C160.7,67.3,160.7,63.3,162.9,60.8 M175.6,74.7c2.3-2.6,6-2.6,8.3,0c2.3,2.5,2.3,6.6,0,9.1c-2.3,2.6-6,2.6-8.3,0
	C173.4,81.3,173.4,77.3,175.6,74.7 M175.6,46.8c2.3-2.6,6-2.6,8.3,0c2.3,2.5,2.3,6.6,0,9.1c-2.3,2.6-6,2.6-8.3,0
	C173.4,53.4,173.4,49.4,175.6,46.8 M188.3,60.8c2.3-2.5,6-2.5,8.3,0c2.3,2.5,2.3,6.6,0,9.1c-2.3,2.5-6,2.6-8.3,0
	C186,67.3,186,63.3,188.3,60.8 M251.5,39.6c0-10.2-7.5-18.3-16.8-18.3h-186c-9.3,0-16.8,8.2-16.8,18.3v70.1h24.9l-24.9,64.1v70.1
	c0,10.2,7.5,18.3,16.8,18.3h186.1c9.3,0,16.8-8.2,16.8-18.3v-70.1h-24.9l24.9-64.1L251.5,39.6L251.5,39.6z"/>
</svg>
